<?xml version="1.0" encoding="UTF-8" standalone="no"?>
<!DOCTYPE svg PUBLIC "-//W3C//DTD SVG 20010904//EN"
              "http://www.w3.org/TR/2001/REC-SVG-20010904/DTD/svg10.dtd">

<svg xmlns="http://www.w3.org/2000/svg"
     width="250.066mm" height="354.591mm"
     viewBox="0 0 945 1340">
  <path id="Selection #1"
        fill="none" stroke="black" stroke-width="1"
        d="M 388.00,866.00
           C 388.00,866.00 345.00,860.27 345.00,860.27
             305.97,854.64 267.24,845.82 230.00,832.69
             162.03,808.72 93.76,774.17 47.80,717.00
             47.80,717.00 28.47,691.00 28.47,691.00
             25.61,686.16 25.03,681.90 23.01,677.00
             21.06,672.25 18.34,670.84 16.61,666.00
             16.61,666.00 10.00,633.00 10.00,633.00
             5.43,609.80 1.99,586.62 0.96,563.00
             0.96,563.00 0.00,550.00 0.00,550.00
             0.00,550.00 0.00,503.00 0.00,503.00
             0.00,503.00 0.91,491.00 0.91,491.00
             0.91,491.00 4.28,451.00 4.28,451.00
             15.03,364.81 47.92,275.26 97.72,204.00
             167.55,104.07 264.14,34.55 384.00,9.21
             384.00,9.21 433.00,2.00 433.00,2.00
             433.00,2.00 441.00,2.00 441.00,2.00
             441.00,2.00 463.00,0.00 463.00,0.00
             463.00,0.00 477.00,0.00 477.00,0.00
             477.00,0.00 497.00,1.00 497.00,1.00
             497.00,1.00 518.00,2.83 518.00,2.83
             552.85,6.32 587.07,13.90 620.00,25.95
             653.85,38.33 684.79,54.02 715.00,73.69
             741.47,90.94 765.71,111.71 788.00,134.00
             859.42,205.42 908.81,297.45 930.58,396.00
             935.74,419.39 939.55,443.16 941.83,467.00
             941.83,467.00 943.09,489.00 943.09,489.00
             943.09,489.00 945.00,515.00 945.00,515.00
             945.00,515.00 945.00,539.00 945.00,539.00
             945.00,539.00 944.09,549.00 944.09,549.00
             944.09,549.00 941.17,580.00 941.17,580.00
             941.17,580.00 935.08,631.00 935.08,631.00
             933.36,641.30 929.22,665.50 924.87,674.00
             873.49,774.37 758.58,825.05 654.00,849.88
             628.28,855.99 611.23,859.01 585.00,862.15
             585.00,862.15 563.00,865.00 563.00,865.00
             563.00,865.00 563.00,1107.00 563.00,1107.00
             563.00,1107.00 563.00,1228.00 563.00,1228.00
             563.00,1228.00 562.00,1243.00 562.00,1243.00
             562.00,1243.00 562.00,1252.00 562.00,1252.00
             561.81,1268.11 556.86,1294.14 552.87,1310.00
             550.98,1317.52 546.66,1330.46 540.82,1335.61
             536.13,1339.74 528.93,1339.99 523.00,1340.00
             523.00,1340.00 426.00,1340.00 426.00,1340.00
             421.54,1339.99 417.15,1340.00 413.04,1337.95
             405.32,1334.11 401.20,1321.76 398.67,1314.00
             392.87,1296.23 391.18,1277.51 389.91,1259.00
             389.91,1259.00 388.00,1234.00 388.00,1234.00
             388.00,1234.00 388.00,866.00 388.00,866.00 Z
           M 935.00,582.00
           C 935.00,582.00 936.09,555.00 936.09,555.00
             936.09,555.00 937.00,543.00 937.00,543.00
             937.00,543.00 937.00,511.00 937.00,511.00
             937.00,511.00 934.96,485.00 934.96,485.00
             934.96,485.00 934.96,475.00 934.96,475.00
             930.60,430.55 922.27,388.58 908.66,346.00
             899.32,316.80 885.90,286.92 871.31,260.00
             808.70,144.50 713.31,59.86 586.00,23.58
             560.93,16.44 535.88,12.34 510.00,9.83
             510.00,9.83 490.00,8.00 490.00,8.00
             490.00,8.00 458.00,8.00 458.00,8.00
             458.00,8.00 446.00,8.91 446.00,8.91
             407.96,11.53 371.24,18.44 335.00,30.51
             174.30,84.08 59.05,232.86 22.35,395.00
             13.83,432.63 8.06,471.41 8.00,510.00
             8.00,510.00 7.00,527.00 7.00,527.00
             7.00,527.00 8.83,565.00 8.83,565.00
             9.30,569.82 9.20,576.52 11.00,581.00
             15.33,550.28 35.94,519.09 55.73,496.00
             66.30,483.67 78.47,472.85 91.00,462.58
             141.06,421.56 193.79,398.81 255.00,379.98
             293.46,368.15 333.17,360.91 373.00,355.72
             373.00,355.72 412.00,351.91 412.00,351.91
             412.00,351.91 422.00,351.00 422.00,351.00
             422.00,351.00 441.00,350.00 441.00,350.00
             441.00,350.00 504.00,350.00 504.00,350.00
             504.00,350.00 519.00,351.00 519.00,351.00
             519.00,351.00 544.00,352.83 544.00,352.83
             584.77,356.78 624.22,363.18 664.00,373.13
             737.82,391.58 812.14,423.73 869.00,475.17
             888.45,492.77 908.26,517.30 919.74,541.00
             924.91,551.67 926.17,557.22 929.67,568.00
             931.19,572.67 932.16,578.01 935.00,582.00 Z
           M 621.00,106.52
           C 623.69,106.09 624.26,106.04 627.00,106.00
             633.62,105.93 638.93,106.33 645.00,109.38
             677.38,125.62 677.95,195.16 635.00,204.33
             613.95,208.83 596.24,193.39 590.44,174.00
             582.42,147.23 591.49,114.45 621.00,106.52 Z
           M 625.00,112.30
           C 598.13,117.37 589.95,146.35 596.16,170.00
             599.97,184.56 609.73,197.80 626.00,198.00
             630.11,198.05 634.05,198.22 638.00,196.90
             660.82,189.24 665.18,160.49 660.10,140.00
             655.95,123.22 643.01,110.67 625.00,112.30 Z
           M 287.00,116.43
           C 291.66,115.96 293.48,116.41 298.00,117.42
             329.30,124.44 331.92,162.77 311.91,178.96
             303.72,185.59 297.00,186.12 287.00,186.00
             262.47,185.70 247.14,157.54 257.40,136.00
             263.86,122.44 273.13,118.68 287.00,116.43 Z
           M 284.00,123.32
           C 278.78,124.50 274.37,126.06 270.29,129.68
             250.72,147.01 263.46,184.48 294.00,179.56
             309.86,177.01 318.16,165.60 318.00,150.00
             317.92,142.80 315.72,136.49 310.68,131.18
             303.92,124.07 293.33,122.30 284.00,123.32 Z
           M 431.00,135.23
           C 434.17,135.03 435.84,135.00 439.00,135.23
             456.64,134.97 474.54,140.88 486.83,154.04
             496.59,164.49 503.83,180.59 504.00,195.00
             504.00,195.00 504.00,207.00 504.00,207.00
             503.67,235.11 481.54,261.26 454.00,266.54
             433.19,270.53 410.36,265.18 395.09,249.91
             368.96,223.78 369.44,177.62 396.00,152.04
             406.15,142.27 417.58,138.36 431.00,135.23 Z
           M 439.00,141.32
           C 431.34,142.30 427.74,142.20 420.00,144.75
             405.01,149.68 392.32,162.49 386.45,177.00
             372.38,211.81 394.05,260.52 435.00,261.00
             452.97,261.21 467.59,258.23 480.91,244.91
             508.51,217.31 502.49,165.48 467.00,147.37
             459.28,143.43 447.65,141.13 439.00,141.32 Z
           M 157.00,247.46
           C 164.20,246.47 170.99,247.00 178.00,248.92
             224.71,261.72 220.19,337.51 176.00,346.55
             172.42,347.28 167.61,348.11 164.00,347.91
             157.59,347.54 149.72,345.63 144.00,342.73
             117.11,329.09 110.81,289.70 127.79,266.00
             134.83,256.17 145.34,250.06 157.00,247.46 Z
           M 157.00,254.16
           C 135.06,259.25 124.76,277.72 125.00,299.00
             125.25,320.17 140.71,340.74 163.00,340.77
             166.17,341.03 169.91,341.11 173.00,340.77
             185.44,338.20 196.96,327.60 201.54,316.00
             211.47,290.81 198.81,254.37 168.00,254.16
             168.00,254.16 157.00,254.16 157.00,254.16 Z
           M 769.00,267.44
           C 774.86,266.69 779.23,266.88 785.00,268.24
             832.14,279.33 830.61,356.74 781.00,364.56
             751.97,369.14 730.08,343.69 730.08,316.00
             730.08,291.38 744.45,272.04 769.00,267.44 Z
           M 768.00,274.32
           C 746.25,279.20 736.90,295.91 737.00,317.00
             737.09,337.14 750.20,357.74 772.00,358.00
             786.35,358.17 795.17,356.08 804.47,344.00
             812.05,334.16 812.13,323.72 812.00,312.00
             811.82,297.31 803.87,282.32 790.00,276.34
             783.48,273.52 774.99,273.56 768.00,274.32 Z
           M 470.00,357.00
           C 436.51,357.00 403.29,359.59 370.00,363.16
             370.00,363.16 329.00,369.00 329.00,369.00
             329.00,369.00 360.70,427.00 360.70,427.00
             360.70,427.00 420.23,535.00 420.23,535.00
             420.23,535.00 441.75,574.00 441.75,574.00
             445.33,580.83 446.55,586.84 455.00,587.00
             455.00,587.00 470.00,587.00 470.00,587.00
             470.00,587.00 470.00,357.00 470.00,357.00 Z
           M 643.00,376.00
           C 643.00,376.00 595.00,366.41 595.00,366.41
             556.30,360.19 517.15,357.00 478.00,357.00
             478.00,357.00 478.00,587.00 478.00,587.00
             478.00,587.00 497.00,587.00 497.00,587.00
             506.99,586.93 507.78,581.83 513.00,574.00
             513.00,574.00 535.33,540.00 535.33,540.00
             535.33,540.00 607.00,432.00 607.00,432.00
             607.00,432.00 630.00,397.00 630.00,397.00
             633.84,391.24 640.68,382.08 643.00,376.00 Z
           M 443.00,587.00
           C 443.00,587.00 406.86,521.00 406.86,521.00
             406.86,521.00 354.00,425.00 354.00,425.00
             354.00,425.00 332.42,386.00 332.42,386.00
             330.41,382.43 326.43,373.07 322.79,371.61
             320.23,370.58 314.73,372.03 312.00,372.65
             312.00,372.65 288.00,378.15 288.00,378.15
             288.00,378.15 246.00,390.98 246.00,390.98
             246.00,390.98 218.00,399.52 218.00,399.52
             218.00,399.52 195.00,408.00 195.00,408.00
             197.36,416.03 205.66,421.05 212.00,425.88
             212.00,425.88 251.00,456.80 251.00,456.80
             251.00,456.80 363.00,545.60 363.00,545.60
             363.00,545.60 396.00,572.00 396.00,572.00
             401.46,576.37 409.60,583.70 416.00,585.89
             421.28,587.70 436.63,587.00 443.00,587.00 Z
           M 803.00,437.00
           C 798.57,431.78 792.04,428.78 786.00,425.75
             786.00,425.75 758.00,412.99 758.00,412.99
             758.00,412.99 716.00,396.05 716.00,396.05
             702.45,391.09 663.09,379.83 649.00,377.00
             649.00,377.00 557.00,516.00 557.00,516.00
             557.00,516.00 526.66,562.00 526.66,562.00
             526.66,562.00 511.00,587.00 511.00,587.00
             511.00,587.00 529.00,586.37 529.00,586.37
             529.00,586.37 564.00,567.86 564.00,567.86
             564.00,567.86 608.00,543.86 608.00,543.86
             608.00,543.86 803.00,437.00 803.00,437.00 Z
           M 403.00,604.00
           C 404.61,600.26 409.33,592.92 407.22,589.17
             406.07,587.13 400.11,582.68 398.00,581.00
             398.00,581.00 378.00,565.35 378.00,565.35
             378.00,565.35 311.00,512.21 311.00,512.21
             311.00,512.21 223.00,442.40 223.00,442.40
             223.00,442.40 199.00,423.21 199.00,423.21
             195.53,420.48 190.35,415.94 186.00,415.23
             178.73,414.04 162.04,424.23 155.00,427.75
             129.71,440.43 93.28,465.62 74.00,486.00
             74.00,486.00 101.00,495.69 101.00,495.69
             101.00,495.69 151.00,513.69 151.00,513.69
             151.00,513.69 268.00,555.69 268.00,555.69
             268.00,555.69 357.00,587.69 357.00,587.69
             357.00,587.69 403.00,604.00 403.00,604.00 Z
           M 902.00,524.00
           C 888.77,500.43 860.66,474.74 839.00,458.63
             833.98,454.90 817.40,442.79 812.00,442.25
             806.29,441.69 793.42,450.13 788.00,453.14
             788.00,453.14 734.00,482.58 734.00,482.58
             734.00,482.58 617.00,546.31 617.00,546.31
             617.00,546.31 558.00,578.31 558.00,578.31
             558.00,578.31 540.00,588.00 540.00,588.00
             540.79,592.17 544.63,601.63 549.18,602.67
             552.15,603.35 567.05,599.30 571.00,598.42
             571.00,598.42 626.00,586.12 626.00,586.12
             626.00,586.12 812.00,544.42 812.00,544.42
             812.00,544.42 870.00,531.42 870.00,531.42
             870.00,531.42 902.00,524.00 902.00,524.00 Z
           M 15.00,623.00
           C 15.00,623.00 389.00,623.00 389.00,623.00
             390.97,623.00 394.69,623.26 396.27,622.01
             398.92,619.90 400.57,610.40 397.67,608.08
             396.08,606.81 390.24,605.10 388.00,604.31
             388.00,604.31 370.00,597.81 370.00,597.81
             370.00,597.81 298.00,571.95 298.00,571.95
             298.00,571.95 143.00,516.31 143.00,516.31
             143.00,516.31 93.00,498.31 93.00,498.31
             93.00,498.31 69.00,490.00 69.00,490.00
             69.00,490.00 59.43,501.00 59.43,501.00
             52.17,509.48 45.96,517.50 40.06,527.00
             20.17,559.05 15.00,585.95 15.00,623.00 Z
           M 550.00,608.00
           C 550.67,612.36 552.89,622.46 556.39,625.15
             560.04,627.94 573.05,627.00 578.00,627.00
             578.00,627.00 634.00,627.00 634.00,627.00
             634.00,627.00 859.00,627.00 859.00,627.00
             859.00,627.00 909.00,627.00 909.00,627.00
             913.50,627.00 924.16,628.00 927.15,624.49
             929.88,621.28 929.05,607.61 929.00,603.00
             928.79,585.35 921.79,563.15 914.85,547.00
             913.30,543.39 908.02,530.93 904.61,529.66
             902.68,528.95 898.11,530.33 896.00,530.79
             896.00,530.79 877.00,535.12 877.00,535.12
             877.00,535.12 807.00,550.79 807.00,550.79
             807.00,550.79 705.00,573.65 705.00,573.65
             705.00,573.65 599.00,597.42 599.00,597.42
             599.00,597.42 550.00,608.00 550.00,608.00 Z
           M 527.00,594.33
           C 527.00,594.33 490.00,595.00 490.00,595.00
             490.00,595.00 425.00,595.00 425.00,595.00
             422.93,595.00 419.92,594.89 418.00,595.60
             409.99,598.59 406.74,611.56 404.87,619.00
             400.12,637.98 398.25,656.57 396.91,676.00
             396.91,676.00 395.00,697.00 395.00,697.00
             395.00,697.00 395.00,833.00 395.00,833.00
             395.00,833.00 395.00,1103.00 395.00,1103.00
             395.00,1103.00 395.00,1228.00 395.00,1228.00
             395.00,1228.00 399.28,1279.00 399.28,1279.00
             400.93,1291.54 403.31,1303.99 407.36,1316.00
             408.95,1320.72 411.71,1327.41 416.04,1330.15
             419.33,1332.22 423.28,1331.99 427.00,1332.00
             427.00,1332.00 524.00,1332.00 524.00,1332.00
             526.44,1332.00 529.73,1332.13 532.00,1331.26
             540.46,1328.02 544.29,1313.09 546.37,1305.00
             550.01,1290.84 553.98,1267.45 554.00,1253.00
             554.00,1253.00 555.00,1230.00 555.00,1230.00
             555.00,1230.00 556.00,1215.00 556.00,1215.00
             556.00,1215.00 556.00,887.00 556.00,887.00
             556.00,887.00 556.00,706.00 556.00,706.00
             556.00,706.00 554.00,677.00 554.00,677.00
             553.93,661.83 551.29,643.82 547.88,629.00
             546.44,622.74 545.61,616.11 542.48,610.42
             538.58,603.34 538.76,594.37 527.00,594.33 Z
           M 394.00,630.00
           C 394.00,630.00 17.00,630.00 17.00,630.00
             21.21,659.84 34.09,687.51 52.81,711.00
             56.97,716.23 61.27,721.28 66.00,726.00
             68.06,728.05 71.20,731.50 74.00,732.31
             76.42,733.01 79.63,731.81 82.00,731.14
             82.00,731.14 99.00,726.29 99.00,726.29
             99.00,726.29 161.00,708.42 161.00,708.42
             161.00,708.42 321.00,662.58 321.00,662.58
             321.00,662.58 367.00,649.29 367.00,649.29
             367.00,649.29 393.00,642.00 393.00,642.00
             393.00,642.00 394.00,630.00 394.00,630.00 Z
           M 926.00,634.00
           C 926.00,634.00 557.00,634.00 557.00,634.00
             557.06,636.86 557.07,641.16 558.93,643.49
             560.54,645.51 564.57,646.55 567.00,647.28
             567.00,647.28 583.00,652.33 583.00,652.33
             583.00,652.33 668.00,679.67 668.00,679.67
             668.00,679.67 802.00,723.00 802.00,723.00
             802.00,723.00 842.00,736.00 842.00,736.00
             844.84,736.94 859.06,741.52 861.00,741.36
             864.26,741.09 866.80,738.15 869.00,736.00
             869.00,736.00 884.25,720.00 884.25,720.00
             902.20,698.57 925.37,662.84 926.00,634.00 Z
           M 392.00,648.00
           C 392.00,648.00 361.00,656.29 361.00,656.29
             361.00,656.29 309.00,671.29 309.00,671.29
             309.00,671.29 155.00,715.42 155.00,715.42
             155.00,715.42 79.00,737.00 79.00,737.00
             81.59,742.47 84.53,744.15 89.00,748.00
             89.00,748.00 112.00,765.86 112.00,765.86
             125.11,775.22 135.91,781.67 150.00,789.31
             154.20,791.59 163.48,797.36 168.00,797.46
             171.95,797.55 177.61,793.63 181.00,791.60
             181.00,791.60 207.00,775.60 207.00,775.60
             207.00,775.60 310.00,712.19 310.00,712.19
             310.00,712.19 367.00,677.05 367.00,677.05
             371.77,674.06 386.62,665.86 389.07,661.91
             390.83,659.06 391.72,651.49 392.00,648.00 Z
           M 560.00,650.00
           C 557.04,660.49 569.84,666.89 577.00,671.67
             577.00,671.67 640.00,714.72 640.00,714.72
             640.00,714.72 726.00,773.86 726.00,773.86
             726.00,773.86 753.00,792.33 753.00,792.33
             756.78,794.85 763.66,799.84 768.00,800.57
             774.50,801.67 787.30,793.36 793.00,790.01
             811.61,779.08 822.18,773.74 840.00,760.37
             845.84,755.99 852.49,751.78 857.00,746.00
             857.00,746.00 750.00,711.66 750.00,711.66
             750.00,711.66 665.00,684.02 665.00,684.02
             665.00,684.02 603.00,664.02 603.00,664.02
             603.00,664.02 560.00,650.00 560.00,650.00 Z
           M 760.00,807.00
           C 757.10,801.42 747.39,795.94 742.00,792.33
             742.00,792.33 705.00,767.00 705.00,767.00
             705.00,767.00 657.00,734.02 657.00,734.02
             657.00,734.02 616.00,706.28 616.00,706.28
             616.00,706.28 563.00,671.00 563.00,671.00
             560.23,680.74 562.95,693.01 563.00,703.00
             563.00,703.00 563.00,728.00 563.00,728.00
             563.00,728.00 563.00,857.00 563.00,857.00
             563.00,857.00 606.00,851.27 606.00,851.27
             636.99,846.80 679.48,836.87 709.00,826.66
             709.00,826.66 760.00,807.00 760.00,807.00 Z
           M 389.00,672.00
           C 389.00,672.00 365.00,686.40 365.00,686.40
             365.00,686.40 317.00,715.58 317.00,715.58
             317.00,715.58 178.00,801.00 178.00,801.00
             178.00,801.00 178.00,803.00 178.00,803.00
             193.72,811.95 211.02,817.65 228.00,823.69
             256.38,833.79 285.37,841.83 315.00,847.39
             315.00,847.39 388.00,859.00 388.00,859.00
             388.00,859.00 388.00,693.00 388.00,693.00
             388.00,693.00 389.00,678.00 389.00,678.00
             389.00,678.00 389.00,672.00 389.00,672.00 Z" />
  <path id="Selection"
        fill="none" stroke="black" stroke-width="1"
        d="M 22.89,672.56
           C 16.74,670.16 16.49,662.44 15.06,656.56
             15.06,656.56 6.79,612.57 6.79,612.57
             -3.65,548.84 -1.43,475.89 11.16,412.60
             48.37,225.40 178.42,60.93 368.18,13.49
             393.81,7.08 419.21,3.67 445.50,1.87
             445.50,1.87 458.83,0.65 458.83,0.65
             503.69,0.13 547.52,4.87 590.81,17.22
             722.42,54.77 825.75,151.55 886.28,272.62
             919.45,338.97 939.59,417.22 942.82,491.25
             942.82,491.25 944.10,508.58 944.10,508.58
             944.10,508.58 944.10,543.24 944.10,543.24
             944.10,543.24 942.88,559.24 942.88,559.24
             942.88,559.24 936.66,617.90 936.66,617.90
             934.82,629.77 929.34,662.60 924.94,672.33
             924.94,672.33 919.69,680.95 919.69,680.95
             919.69,680.95 916.09,689.01 916.09,689.01
             916.09,689.01 907.66,700.56 907.66,700.56
             862.13,767.20 787.13,807.54 712.13,832.54
             678.56,843.72 644.39,852.56 609.48,858.41
             609.48,858.41 562.82,864.53 562.82,864.53
             562.82,864.53 562.82,1101.83 562.82,1101.83
             562.82,1101.83 562.82,1221.82 562.82,1221.82
             562.82,1221.82 561.48,1241.81 561.48,1241.81
             561.48,1241.81 561.48,1248.48 561.48,1248.48
             561.27,1265.86 555.88,1300.02 550.34,1316.47
             547.83,1323.92 542.93,1335.96 534.81,1338.45
             532.21,1339.25 528.25,1339.13 525.49,1339.13
             525.49,1339.13 424.17,1339.13 424.17,1339.13
             421.41,1339.13 417.38,1339.28 414.84,1338.33
             406.45,1335.20 401.84,1321.72 399.29,1313.80
             392.27,1291.86 390.95,1268.57 389.39,1245.81
             389.39,1245.81 388.17,1232.48 388.17,1232.48
             388.17,1232.48 388.17,1109.83 388.17,1109.83
             388.17,1109.83 388.17,865.87 388.17,865.87
             388.17,865.87 328.18,857.31 328.18,857.31
             245.39,842.38 162.27,812.94 94.88,761.71
             72.43,744.64 52.69,723.83 36.78,700.58
             36.78,700.58 29.93,691.96 29.93,691.96
             27.08,687.48 23.24,677.85 22.89,672.56 Z
           M 934.76,585.91
           C 934.76,585.91 937.43,544.58 937.43,544.58
             937.43,544.58 937.43,508.58 937.43,508.58
             937.43,508.58 936.15,491.25 936.15,491.25
             934.07,443.72 924.86,396.69 910.74,351.27
             902.49,324.74 891.52,298.77 879.11,273.95
             817.81,151.35 714.97,57.93 581.48,21.78
             555.23,14.68 528.58,10.43 501.49,8.53
             501.49,8.53 488.16,7.32 488.16,7.32
             488.16,7.32 458.83,7.32 458.83,7.32
             458.83,7.32 442.83,8.53 442.83,8.53
             406.17,11.09 369.67,18.14 334.85,30.09
             169.14,86.92 53.46,238.41 19.16,407.26
             9.31,455.76 6.32,495.22 6.89,544.58
             6.97,550.60 9.21,581.67 10.89,585.91
             13.88,550.44 41.11,510.37 65.55,485.92
             119.48,431.99 187.59,399.74 260.19,378.88
             401.86,338.15 569.44,340.15 709.46,386.83
             778.80,409.93 850.96,447.79 897.06,505.92
             908.07,519.81 918.59,537.30 924.87,553.91
             924.87,553.91 934.76,585.91 934.76,585.91 Z
           M 622.81,106.60
           C 676.39,99.28 684.95,194.80 633.47,204.01
             612.90,207.69 595.98,191.31 590.71,172.63
             583.12,145.71 593.05,113.60 622.81,106.60 Z
           M 624.14,113.08
           C 598.01,119.34 590.53,148.13 597.36,171.30
             601.82,186.41 615.16,200.31 632.14,197.53
             674.88,190.53 669.49,108.47 624.14,113.08 Z
           M 284.19,117.25
           C 290.60,116.38 293.95,116.69 300.19,118.56
             334.26,128.76 331.07,178.76 296.19,185.33
             265.88,191.05 243.27,156.63 261.06,131.30
             267.20,122.54 274.16,119.49 284.19,117.25 Z
           M 285.52,123.73
           C 277.52,125.54 271.46,128.30 266.66,135.31
             253.17,155.03 268.71,182.44 293.52,178.90
             313.17,176.08 324.01,153.71 313.52,136.63
             307.53,126.92 296.53,122.64 285.52,123.73 Z
           M 432.17,135.89
           C 440.91,134.77 446.27,135.29 454.83,137.19
             515.05,150.69 521.49,237.67 465.50,262.12
             456.91,265.87 448.16,267.47 438.83,267.27
             381.80,265.98 356.58,195.99 393.91,155.42
             404.56,143.85 417.06,138.67 432.17,135.89 Z
           M 433.50,142.35
           C 419.85,144.62 410.53,148.55 400.40,158.35
             361.64,195.80 391.39,267.47 446.83,260.23
             498.00,253.56 515.32,187.16 476.15,155.05
             470.30,150.25 466.03,147.49 458.83,145.11
             450.07,142.22 442.65,141.49 433.50,142.35 Z
           M 158.87,247.65
           C 161.95,247.47 163.70,247.22 166.87,247.65
             172.48,247.74 179.12,249.53 184.20,251.94
             228.65,273.15 214.05,350.12 162.87,347.15
             125.73,344.99 108.55,301.80 125.41,271.28
             132.68,258.14 144.42,250.66 158.87,247.65 Z
           M 160.20,254.35
           C 138.39,258.48 124.72,277.37 125.60,299.28
             126.54,322.70 146.30,344.27 170.87,340.18
             178.52,338.90 185.27,335.17 190.81,329.82
             218.45,303.16 201.12,250.41 160.20,254.35 Z
           M 769.45,267.87
           C 775.57,267.10 778.09,267.31 784.12,268.64
             831.27,279.00 830.30,356.99 780.12,364.20
             750.92,368.40 729.78,341.25 730.85,313.94
             731.78,290.21 745.94,272.27 769.45,267.87 Z
           M 770.79,274.35
           C 749.28,278.41 736.65,296.43 737.51,317.94
             738.39,339.81 755.51,360.47 778.79,357.70
             826.62,351.98 821.43,269.78 770.79,274.35 Z
           M 470.83,356.60
           C 411.61,356.60 345.75,363.40 288.19,377.79
             288.19,377.79 218.86,398.85 218.86,398.85
             218.86,398.85 193.53,408.60 193.53,408.60
             197.43,416.16 208.10,422.91 214.86,428.33
             214.86,428.33 262.86,466.46 262.86,466.46
             262.86,466.46 376.17,556.31 376.17,556.31
             376.17,556.31 400.17,575.51 400.17,575.51
             403.78,578.40 410.88,584.52 414.84,586.11
             418.18,587.44 421.97,587.22 425.50,587.24
             425.50,587.24 470.83,587.24 470.83,587.24
             470.83,587.24 470.83,356.60 470.83,356.60 Z
           M 804.12,436.59
           C 797.40,430.49 777.04,420.75 768.12,416.78
             768.12,416.78 716.13,395.70 716.13,395.70
             639.14,370.04 558.62,356.60 477.49,356.60
             477.49,356.60 477.49,587.01 477.49,587.01
             477.49,587.01 520.15,587.01 520.15,587.01
             520.15,587.01 529.49,587.01 529.49,587.01
             529.49,587.01 557.48,571.65 557.48,571.65
             557.48,571.65 630.81,531.66 630.81,531.66
             630.81,531.66 730.79,477.00 730.79,477.00
             730.79,477.00 804.12,436.59 804.12,436.59 Z
           M 409.50,589.90
           C 409.50,589.90 350.85,543.78 350.85,543.78
             350.85,543.78 252.19,465.39 252.19,465.39
             252.19,465.39 208.20,430.46 208.20,430.46
             204.37,427.41 190.35,415.56 186.87,414.42
             181.98,412.84 174.06,418.05 169.54,420.19
             153.95,427.61 138.59,435.94 124.21,445.48
             77.58,476.43 33.86,517.93 19.53,573.91
             14.60,593.13 14.89,603.97 14.89,623.23
             14.89,623.23 397.51,623.23 397.51,623.23
             400.04,605.29 405.86,601.45 409.50,589.90 Z
           M 538.82,588.57
           C 542.99,598.42 546.02,598.37 550.56,612.57
             551.58,615.75 553.32,623.99 555.78,625.91
             557.94,627.58 562.82,627.23 565.48,627.23
             565.48,627.23 832.11,627.23 832.11,627.23
             832.11,627.23 905.44,627.23 905.44,627.23
             926.91,627.23 929.25,629.35 929.43,616.57
             929.43,616.57 929.43,604.57 929.43,604.57
             929.35,597.70 927.86,588.70 926.50,581.91
             917.34,535.87 888.85,499.37 853.44,469.81
             841.28,459.66 837.08,456.79 824.11,448.15
             820.69,445.86 814.94,441.34 810.78,441.51
             807.65,441.65 801.78,445.34 798.78,446.92
             798.78,446.92 774.79,460.03 774.79,460.03
             774.79,460.03 694.80,503.66 694.80,503.66
             694.80,503.66 592.15,559.66 592.15,559.66
             592.15,559.66 538.82,588.57 538.82,588.57 Z
           M 418.89,594.25
           C 409.77,598.38 406.76,610.33 404.37,619.23
             399.00,639.38 397.47,659.92 396.05,680.56
             396.05,680.56 394.84,693.89 394.84,693.89
             394.84,693.89 394.84,964.52 394.84,964.52
             394.84,964.52 394.84,1233.81 394.84,1233.81
             394.84,1233.81 396.05,1247.15 396.05,1247.15
             397.48,1267.90 398.99,1288.31 404.74,1308.47
             406.72,1315.39 410.36,1328.85 417.56,1331.67
             420.00,1332.61 424.17,1332.47 426.83,1332.47
             426.83,1332.47 522.82,1332.47 522.82,1332.47
             526.38,1332.47 531.29,1332.79 534.38,1330.91
             540.33,1327.31 544.83,1312.46 546.62,1305.80
             551.80,1286.33 554.79,1261.94 554.82,1241.81
             554.82,1241.81 556.15,1219.15 556.15,1219.15
             556.15,1219.15 556.15,887.20 556.15,887.20
             556.15,887.20 556.15,703.22 556.15,703.22
             556.15,703.22 554.82,683.22 554.82,683.22
             554.82,683.22 554.82,677.89 554.82,677.89
             554.63,662.35 549.39,630.25 544.90,615.23
             542.94,608.68 538.91,597.34 532.10,594.25
             529.63,593.74 525.51,593.90 522.82,594.25
             522.82,594.25 456.16,594.25 456.16,594.25
             456.16,594.25 418.89,594.25 418.89,594.25 Z
           M 394.84,629.90
           C 394.84,629.90 16.22,629.90 16.22,629.90
             16.22,629.90 23.00,657.90 23.00,657.90
             39.34,705.54 77.04,741.98 117.54,770.04
             129.02,777.98 141.14,785.14 153.54,791.56
             157.26,793.48 164.32,798.22 168.20,798.13
             171.76,798.05 175.88,794.96 178.87,793.10
             178.87,793.10 201.53,779.21 201.53,779.21
             201.53,779.21 285.52,727.49 285.52,727.49
             285.52,727.49 360.18,681.47 360.18,681.47
             360.18,681.47 380.17,669.12 380.17,669.12
             382.73,667.53 387.89,664.79 389.52,662.41
             390.92,660.39 391.44,655.14 391.81,652.56
             391.81,652.56 394.84,629.90 394.84,629.90 Z
           M 926.77,633.90
           C 926.77,633.90 556.15,633.90 556.15,633.90
             556.71,638.16 559.08,656.30 560.56,658.99
             563.12,663.60 580.16,673.92 585.48,677.71
             585.48,677.71 649.47,721.51 649.47,721.51
             649.47,721.51 733.46,779.21 733.46,779.21
             733.46,779.21 756.12,794.77 756.12,794.77
             759.31,796.89 764.39,800.62 768.12,801.18
             773.19,801.94 781.07,797.12 785.45,794.65
             785.45,794.65 818.78,775.28 818.78,775.28
             859.88,749.20 897.78,713.97 917.23,668.56
             921.97,657.50 925.78,645.96 926.77,633.90 Z
           M 561.48,668.56
           C 561.48,668.56 560.15,668.56 560.15,668.56
             560.15,668.56 561.48,669.89 561.48,669.89
             561.48,669.89 561.48,668.56 561.48,668.56 Z
           M 562.82,669.89
           C 559.32,678.71 562.70,696.17 562.82,705.89
             562.82,705.89 562.82,857.87 562.82,857.87
             562.82,857.87 618.81,849.87 618.81,849.87
             649.54,843.82 679.71,836.64 709.46,826.74
             709.46,826.74 760.12,807.21 760.12,807.21
             760.12,807.21 760.12,804.54 760.12,804.54
             760.12,804.54 633.47,717.86 633.47,717.86
             633.47,717.86 562.82,669.89 562.82,669.89 Z
           M 389.51,671.23
           C 389.51,671.23 320.18,713.33 320.18,713.33
             320.18,713.33 176.20,801.87 176.20,801.87
             185.63,809.37 216.92,820.09 229.53,824.61
             283.16,843.82 332.18,851.81 388.17,859.20
             388.17,859.20 388.17,697.89 388.17,697.89
             388.17,697.89 389.51,677.89 389.51,677.89
             389.51,677.89 389.51,671.23 389.51,671.23 Z" />
</svg>
