<?xml version="1.0" encoding="UTF-8" standalone="no"?>
<!DOCTYPE svg PUBLIC "-//W3C//DTD SVG 20010904//EN"
              "http://www.w3.org/TR/2001/REC-SVG-20010904/DTD/svg10.dtd">

<svg xmlns="http://www.w3.org/2000/svg"
     width="29.6349mm" height="44.0995mm"
     viewBox="0 0 168 250">
  <path id="Selection #1"
        fill="none" stroke="black" stroke-width="1"
        d="M 68.00,134.00
           C 62.01,133.23 63.54,132.05 56.00,132.00
             45.79,131.94 27.60,128.01 18.40,123.43
             13.46,120.98 7.59,118.54 4.72,113.48
             2.32,109.25 2.94,97.25 3.00,92.00
             3.18,77.29 8.71,57.95 16.22,45.23
             16.22,45.23 24.77,33.52 24.77,33.52
             28.41,28.48 32.17,23.78 37.04,19.76
             41.62,15.97 47.88,12.83 53.20,10.17
             62.76,5.39 69.08,3.13 80.00,3.00
             80.00,3.00 86.00,3.00 86.00,3.00
             98.08,3.15 104.96,5.25 115.60,10.57
             120.68,13.11 125.70,15.77 130.26,19.20
             145.95,31.00 158.07,54.04 162.25,72.93
             163.66,79.32 164.92,85.36 165.00,92.00
             165.06,97.25 165.68,109.25 163.28,113.48
             160.41,118.54 154.54,120.98 149.60,123.43
             141.28,127.57 122.18,131.98 113.00,132.00
             103.69,132.02 106.81,133.13 100.00,134.00
             100.00,134.00 100.00,247.00 100.00,247.00
             100.00,247.00 94.00,247.00 94.00,247.00
             94.00,247.00 93.34,234.00 93.34,234.00
             93.34,234.00 94.00,223.00 94.00,223.00
             94.00,223.00 94.00,110.00 94.00,110.00
             80.26,107.55 89.37,106.93 74.00,109.00
             74.00,109.00 74.00,247.00 74.00,247.00
             74.00,247.00 68.00,247.00 68.00,247.00
             68.00,247.00 68.00,134.00 68.00,134.00 Z
           M 160.00,99.00
           C 160.00,99.00 160.00,90.00 160.00,90.00
             159.98,80.90 154.64,62.25 150.98,53.61
             148.22,47.09 144.11,41.75 139.78,36.26
             135.81,31.20 134.39,28.24 128.96,23.76
             119.15,15.65 100.70,8.02 88.00,8.00
             88.00,8.00 80.00,8.00 80.00,8.00
             67.30,8.02 48.85,15.65 39.04,23.76
             25.20,35.19 14.63,56.02 10.43,73.28
             10.43,73.28 9.74,78.91 9.74,78.91
             8.63,84.84 8.01,81.17 8.00,90.00
             8.00,90.00 8.00,98.00 8.00,98.00
             8.00,98.00 29.25,89.50 29.25,89.50
             29.25,89.50 44.91,85.89 44.91,85.89
             44.91,85.89 55.00,83.88 55.00,83.88
             55.00,83.88 63.75,82.50 63.75,82.50
             63.75,82.50 75.00,82.00 75.00,82.00
             75.00,82.00 97.00,82.00 97.00,82.00
             97.00,82.00 107.25,82.75 107.25,82.75
             107.25,82.75 116.91,84.07 116.91,84.07
             116.91,84.07 130.25,86.25 130.25,86.25
             130.25,86.25 138.71,88.75 138.71,88.75
             138.71,88.75 160.00,99.00 160.00,99.00 Z
           M 72.02,12.75
           C 84.37,10.43 86.17,26.35 76.00,28.53
             68.67,30.09 60.55,19.00 72.02,12.75 Z
           M 112.15,27.04
           C 120.70,24.68 121.66,34.57 115.94,36.34
             111.68,37.67 106.06,32.40 112.15,27.04 Z
           M 45.02,34.02
           C 48.87,32.73 52.56,32.39 55.85,35.31
             61.74,40.54 59.00,50.76 51.00,51.85
             41.01,53.21 35.24,41.07 45.02,34.02 Z
           M 91.02,47.75
           C 103.37,45.43 105.17,61.35 95.00,63.53
             87.67,65.09 79.55,54.00 91.02,47.75 Z
           M 56.15,61.04
           C 64.70,58.68 65.66,68.57 59.94,70.34
             55.68,71.67 50.06,66.40 56.15,61.04 Z
           M 140.02,61.75
           C 152.37,59.43 154.17,75.35 144.00,77.53
             136.67,79.09 128.55,68.00 140.02,61.75 Z
           M 26.02,62.75
           C 38.37,60.43 40.17,76.35 30.00,78.53
             22.67,80.09 14.55,69.00 26.02,62.75 Z
           M 81.00,88.00
           C 81.00,88.00 69.00,88.00 69.00,88.00
             69.00,88.00 48.91,91.93 48.91,91.93
             48.91,91.93 39.00,91.93 39.00,91.93
             39.00,91.93 26.00,94.00 26.00,94.00
             28.83,98.12 40.87,99.68 46.00,100.79
             46.00,100.79 68.00,105.49 68.00,105.49
             70.32,105.49 71.86,104.77 74.00,104.08
             75.79,103.51 78.82,102.94 79.98,101.42
             81.51,99.41 81.00,90.83 81.00,88.00 Z
           M 123.00,92.00
           C 123.00,92.00 102.00,88.00 102.00,88.00
             102.00,88.00 86.00,88.00 86.00,88.00
             86.00,90.91 85.49,99.34 87.02,101.44
             88.56,103.56 95.44,105.66 98.00,105.43
             101.94,105.07 119.45,94.86 123.00,92.00 Z
           M 160.00,107.00
           C 156.89,97.65 139.60,94.02 131.00,92.00
             126.47,97.66 115.59,102.25 109.00,106.00
             103.40,109.19 100.56,109.19 100.00,116.00
             100.00,116.00 160.00,107.00 160.00,107.00 Z
           M 61.00,109.00
           C 46.88,107.10 29.52,102.50 16.00,98.00
             16.00,98.00 11.05,101.85 11.05,101.85
             6.06,106.89 9.71,110.96 12.00,116.00
             12.00,116.00 20.00,120.00 20.00,120.00
             20.00,120.00 42.00,114.42 42.00,114.42
             42.00,114.42 61.00,109.00 61.00,109.00 Z
           M 158.00,112.00
           C 158.00,112.00 100.00,121.00 100.00,121.00
             100.00,121.00 100.00,128.00 100.00,128.00
             100.00,128.00 113.00,126.75 113.00,126.75
             113.00,126.75 124.25,126.00 124.25,126.00
             124.25,126.00 132.75,123.75 132.75,123.75
             132.75,123.75 144.50,120.00 144.50,120.00
             151.00,118.00 155.08,117.80 158.00,112.00 Z
           M 68.00,114.00
           C 68.00,114.00 45.00,119.00 45.00,119.00
             40.56,119.95 36.59,120.01 34.00,124.00
             34.00,124.00 46.50,125.75 46.50,125.75
             46.50,125.75 57.25,127.50 57.25,127.50
             57.25,127.50 68.00,128.00 68.00,128.00
             68.00,128.00 68.00,114.00 68.00,114.00 Z" />
  <path id="Selection"
        fill="none" stroke="black" stroke-width="1"
        d="M 68.00,134.00
           C 62.01,133.23 63.54,132.05 56.00,132.00
             45.79,131.94 27.60,128.01 18.40,123.43
             13.46,120.98 7.59,118.54 4.72,113.48
             2.32,109.25 2.94,97.25 3.00,92.00
             3.18,77.29 8.71,57.95 16.22,45.23
             16.22,45.23 24.77,33.52 24.77,33.52
             28.41,28.48 32.17,23.78 37.04,19.76
             41.62,15.97 47.88,12.83 53.20,10.17
             62.76,5.39 69.08,3.13 80.00,3.00
             80.00,3.00 86.00,3.00 86.00,3.00
             98.08,3.15 104.96,5.25 115.60,10.57
             120.68,13.11 125.70,15.77 130.26,19.20
             145.95,31.00 158.07,54.04 162.25,72.93
             163.66,79.32 164.92,85.36 165.00,92.00
             165.06,97.25 165.68,109.25 163.28,113.48
             160.41,118.54 154.54,120.98 149.60,123.43
             141.28,127.57 122.18,131.98 113.00,132.00
             103.69,132.02 106.81,133.13 100.00,134.00
             100.00,134.00 100.00,247.00 100.00,247.00
             100.00,247.00 94.00,247.00 94.00,247.00
             94.00,247.00 93.34,234.00 93.34,234.00
             93.34,234.00 94.00,223.00 94.00,223.00
             94.00,223.00 94.00,108.00 94.00,108.00
             94.00,108.00 100.00,108.00 100.00,108.00
             100.00,108.00 100.00,128.00 100.00,128.00
             100.00,128.00 111.09,126.06 111.09,126.06
             111.09,126.06 126.00,126.06 126.00,126.06
             126.00,126.06 126.00,122.00 126.00,122.00
             138.38,122.00 141.88,122.28 153.20,116.16
             161.12,111.87 162.16,106.71 154.66,101.16
             152.86,99.83 151.20,98.83 149.20,97.84
             149.20,97.84 139.84,94.46 139.84,94.46
             125.67,90.72 126.65,92.90 120.17,91.76
             113.50,90.59 106.83,88.04 100.00,88.00
             100.00,88.00 71.00,88.00 71.00,88.00
             63.68,88.01 56.94,90.52 49.83,91.89
             49.83,91.89 42.00,91.89 42.00,91.89
             34.65,92.28 22.27,95.97 15.60,99.44
             11.87,101.38 8.12,104.15 9.15,108.96
             9.15,108.96 12.00,116.00 12.00,116.00
             12.00,116.00 28.16,121.54 28.16,121.54
             28.16,121.54 37.09,123.99 37.09,123.99
             37.09,123.99 43.83,123.99 43.83,123.99
             43.83,123.99 50.04,125.99 50.04,125.99
             50.04,125.99 56.91,125.99 56.91,125.99
             56.91,125.99 68.00,128.00 68.00,128.00
             68.00,128.00 68.00,108.00 68.00,108.00
             68.00,108.00 74.00,108.00 74.00,108.00
             74.00,108.00 74.00,247.00 74.00,247.00
             74.00,247.00 68.00,247.00 68.00,247.00
             68.00,247.00 68.00,134.00 68.00,134.00 Z
           M 160.00,99.00
           C 160.00,99.00 160.00,90.00 160.00,90.00
             159.98,80.90 154.64,62.25 150.98,53.61
             148.22,47.09 144.11,41.75 139.78,36.26
             135.81,31.20 134.39,28.24 128.96,23.76
             119.15,15.65 100.70,8.02 88.00,8.00
             88.00,8.00 80.00,8.00 80.00,8.00
             67.30,8.02 48.85,15.65 39.04,23.76
             25.20,35.19 14.63,56.02 10.43,73.28
             10.43,73.28 9.74,78.91 9.74,78.91
             8.63,84.84 8.01,81.17 8.00,90.00
             8.00,90.00 8.00,98.00 8.00,98.00
             8.00,98.00 12.28,94.97 12.28,94.97
             12.28,94.97 44.91,85.89 44.91,85.89
             44.91,85.89 55.00,83.88 55.00,83.88
             55.00,83.88 63.83,83.88 63.83,83.88
             63.83,83.88 75.00,82.00 75.00,82.00
             75.00,82.00 97.00,82.00 97.00,82.00
             97.00,82.00 107.09,84.07 107.09,84.07
             107.09,84.07 116.91,84.07 116.91,84.07
             116.91,84.07 122.17,85.76 122.17,85.76
             122.17,85.76 138.71,88.75 138.71,88.75
             138.71,88.75 160.00,99.00 160.00,99.00 Z" />
</svg>
